<svg data-v-fde0c5aa="" xmlns="http://www.w3.org/2000/svg" viewBox="0 0 300 300" class="iconAbove"><!----><defs data-v-fde0c5aa=""><!----></defs><rect data-v-fde0c5aa="" fill="transparent" x="0" y="0" width="300px" height="300px" class="logo-background-square"></rect><defs data-v-fde0c5aa=""><!----></defs><g data-v-fde0c5aa="" id="26b4cc47-5f1c-4b96-9fee-371c4fab0041" fill="#000000" transform="matrix(6.040341768729086,0,0,6.040341768729086,48.9882200990718,182.76050553229388)"><path d="M4.44 9.00L4.44 9.00L4.44 9.00Q4.41 9.02 2.80 10.16L2.80 10.16L2.80 10.16Q1.86 10.84 1.13 11.16L1.13 11.16L1.13 11.16Q1.05 11.20 0.97 11.20L0.97 11.20L0.97 11.20Q0.77 11.20 0.60 10.95L0.60 10.95L0.60 10.95Q0.35 10.61 0.34 10.60L0.34 10.60L0.34 10.60Q0.31 9.37 0.49 7.17L0.49 7.17L0.49 7.17Q0.70 4.83 0.70 3.79L0.70 3.79L0.70 3.79Q0.70 3.08 0.64 2.45L0.64 2.45L0.64 2.45Q0.83 2.27 1.11 2.27L1.11 2.27L1.11 2.27Q1.64 2.27 1.72 2.66L1.72 2.66L1.72 2.66Q1.76 3.81 1.62 6.10L1.62 6.10L1.62 6.10Q1.48 8.39 1.51 9.53L1.51 9.53L1.51 9.53Q1.90 9.37 2.53 8.95L2.53 8.95L2.53 8.95Q3.22 8.47 3.53 8.32L3.53 8.32L3.53 8.32Q3.60 8.32 3.77 8.29L3.77 8.29L3.77 8.29Q3.95 8.26 4.03 8.26L4.03 8.26L4.03 8.26Q4.31 8.26 4.44 8.48L4.44 8.48L4.44 8.48Q4.61 8.79 4.44 9.00ZM9.39 2.34L9.39 2.34L9.39 2.34Q9.00 3.92 7.95 6.45L7.95 6.45L7.95 6.45Q6.72 9.41 6.37 10.53L6.37 10.53L6.37 10.53Q6.30 10.75 6.30 11.09L6.30 11.09L6.30 11.09Q6.31 11.55 6.30 11.68L6.30 11.68L6.30 11.68Q6.26 12.17 5.78 12.17L5.78 12.17L5.78 12.17Q5.54 12.19 5.27 12.00L5.27 12.00L5.27 12.00Q5.00 11.82 5.01 11.61L5.01 11.61L5.01 11.61Q5.05 10.58 5.53 9.27L5.53 9.27L5.53 9.27Q5.96 8.15 6.40 7.03L6.40 7.03L6.40 7.03Q5.40 4.37 4.70 3.14L4.70 3.14L4.70 3.14Q4.66 3.07 4.66 3.00L4.66 3.00L4.66 3.00Q4.66 2.84 4.84 2.71L4.84 2.71L4.84 2.71Q5.01 2.58 5.18 2.58L5.18 2.58L5.18 2.58Q5.21 2.58 5.71 2.73L5.71 2.73L5.71 2.73Q6.06 3.26 6.44 4.10L6.44 4.10L6.44 4.10Q6.76 4.82 7.07 5.53L7.07 5.53L7.07 5.53Q7.35 4.69 7.63 3.86L7.63 3.86L7.63 3.86Q7.95 2.90 8.34 2.27L8.34 2.27L8.34 2.27Q8.46 2.07 8.74 2.07L8.74 2.07L8.74 2.07Q9.13 2.07 9.39 2.34ZM15.64 10.72L15.64 10.72L15.64 10.72Q15.68 10.78 15.68 10.85L15.68 10.85L15.68 10.85Q15.68 11.17 15.01 11.34L15.01 11.34L15.01 11.34Q14.27 10.77 13.16 9.58L13.16 9.58L13.16 9.58Q11.93 8.25 11.33 7.73L11.33 7.73L11.33 7.73Q11.28 8.09 11.17 9.63L11.17 9.63L11.17 9.63Q11.10 10.79 10.92 11.48L10.92 11.48L10.92 11.48Q10.89 11.48 10.74 11.55L10.74 11.55L10.74 11.55Q10.60 11.62 10.50 11.59L10.50 11.59L10.50 11.59Q9.88 11.45 9.88 10.74L9.88 10.74L9.88 10.74Q9.88 10.53 9.94 10.18L9.94 10.18L9.94 10.18Q10.00 9.77 10.01 9.67L10.01 9.67L10.01 9.67Q10.07 8.86 10.08 7.74L10.08 7.74L10.08 6.22L10.08 6.22Q10.08 4.31 10.29 3.01L10.29 3.01L10.29 3.01Q10.43 2.14 11.93 2.21L11.93 2.21L11.93 2.21Q12.68 2.24 13.24 2.97L13.24 2.97L13.24 2.97Q13.76 3.64 13.76 4.42L13.76 4.42L13.76 4.42Q13.76 5.08 13.27 5.74L13.27 5.74L13.27 5.74Q12.85 6.33 12.24 6.66L12.24 6.66L12.24 6.66Q11.98 6.80 11.98 6.97L11.98 6.97L11.98 6.97Q11.98 7.15 12.28 7.41L12.28 7.41L12.28 7.41Q12.50 7.59 12.73 7.77L12.73 7.77L12.73 7.77Q12.74 7.78 14.27 9.17L14.27 9.17L14.27 9.17Q15.23 10.04 15.64 10.72ZM12.68 4.44L12.68 4.44L12.68 4.44Q12.73 4.19 12.71 3.99L12.71 3.99L12.71 3.99Q12.67 3.70 12.47 3.46L12.47 3.46L12.47 3.46Q12.26 3.22 11.82 3.22L11.82 3.22L11.82 3.22Q11.48 3.22 11.40 3.43L11.40 3.43L11.40 3.43Q11.33 3.78 11.33 4.23L11.33 4.23L11.33 4.23Q11.33 4.41 11.37 5.17L11.37 5.17L11.37 5.17Q11.40 5.74 11.37 6.10L11.37 6.10L11.37 6.10Q12.53 5.24 12.68 4.44ZM16.51 3.54L16.51 3.54L16.51 3.54Q16.53 3.95 16.53 4.38L16.53 4.38L16.53 4.38Q16.53 5.33 16.34 7.25L16.34 7.25L16.34 7.25Q16.14 9.17 16.14 10.15L16.14 10.15L16.14 10.15Q16.14 10.51 16.16 10.86L16.16 10.86L16.16 10.86Q16.03 11.26 15.61 11.24L15.61 11.24L15.61 11.24Q15.01 11.21 14.95 10.72L14.95 10.72L14.95 10.72Q14.90 10.23 14.90 9.69L14.90 9.69L14.90 9.69Q14.90 8.74 15.13 6.85L15.13 6.85L15.13 6.85Q15.36 4.96 15.36 4.02L15.36 4.02L15.36 4.02Q15.36 3.65 15.33 3.30L15.33 3.30L15.33 3.30Q15.47 3.04 15.81 3.04L15.81 3.04L15.81 3.04Q16.07 3.04 16.34 3.19L16.34 3.19L16.34 3.19Q16.39 3.15 16.42 3.15L16.42 3.15L16.42 3.15Q16.46 3.15 16.46 3.29L16.46 3.29L16.46 3.29Q16.45 3.46 16.46 3.49L16.46 3.49L16.46 3.49Q16.48 3.53 16.51 3.54ZM21.13 2.18L21.13 2.18L21.13 2.18Q21.13 2.56 20.62 2.66L20.62 2.66L20.62 2.66Q19.96 2.79 19.81 2.95L19.81 2.95L19.81 2.95Q18.24 4.61 18.24 7.22L18.24 7.22L18.24 7.22Q18.24 8.46 18.63 9.55L18.63 9.55L18.63 9.55Q18.96 10.44 19.10 10.72L19.10 10.72L19.10 10.72Q19.45 11.41 19.95 11.70L19.95 11.70L19.95 11.70Q20.16 11.80 20.37 11.89L20.37 11.89L20.37 11.89Q20.59 12.01 20.59 12.24L20.59 12.24L20.59 12.24Q20.59 12.46 20.45 12.64L20.45 12.64L20.45 12.64Q20.30 12.82 20.13 12.78L20.13 12.78L20.13 12.78Q19.95 12.75 19.57 12.60L19.57 12.60L19.57 12.60Q18.90 12.21 18.12 10.93L18.12 10.93L18.12 10.93Q17.92 10.61 17.72 10.27L17.72 10.27L17.72 10.27Q17.51 9.93 17.42 9.62L17.42 9.62L17.42 9.62Q17.35 9.39 17.18 7.81L17.18 7.81L17.18 7.81Q17.12 7.32 17.12 6.86L17.12 6.86L17.12 6.86Q17.12 4.38 18.56 2.65L18.56 2.65L18.56 2.65Q19.40 1.64 20.31 1.64L20.31 1.64L20.31 1.64Q20.71 1.64 21.03 1.88L21.03 1.88L21.03 1.88Q21.13 1.95 21.13 2.18ZM22.51 3.54L22.51 3.54L22.51 3.54Q22.54 3.95 22.54 4.38L22.54 4.38L22.54 4.38Q22.54 5.33 22.34 7.25L22.34 7.25L22.34 7.25Q22.15 9.17 22.15 10.15L22.15 10.15L22.15 10.15Q22.15 10.51 22.16 10.86L22.16 10.86L22.16 10.86Q22.04 11.26 21.62 11.24L21.62 11.24L21.62 11.24Q21.01 11.21 20.96 10.72L20.96 10.72L20.96 10.72Q20.90 10.23 20.90 9.69L20.90 9.69L20.90 9.69Q20.90 8.74 21.13 6.85L21.13 6.85L21.13 6.85Q21.36 4.96 21.36 4.02L21.36 4.02L21.36 4.02Q21.36 3.65 21.34 3.30L21.34 3.30L21.34 3.30Q21.48 3.04 21.81 3.04L21.81 3.04L21.81 3.04Q22.08 3.04 22.34 3.19L22.34 3.19L22.34 3.19Q22.40 3.15 22.43 3.15L22.43 3.15L22.43 3.15Q22.47 3.15 22.47 3.29L22.47 3.29L22.47 3.29Q22.46 3.46 22.47 3.49L22.47 3.49L22.47 3.49Q22.48 3.53 22.51 3.54ZM28.24 10.25L28.24 10.25L28.24 10.25Q28.28 10.35 28.28 10.43L28.28 10.43L28.28 10.43Q28.28 10.58 28.14 10.72L28.14 10.72L28.14 10.72Q28 10.85 27.86 10.98L27.86 10.98L27.86 10.98Q26.12 10.85 23.87 10.22L23.87 10.22L23.87 10.22Q23.39 10.08 23.21 10.00L23.21 10.00L23.21 10.00Q22.88 9.84 22.72 9.56L22.72 9.56L22.72 9.56Q22.74 9.45 22.72 9.28L22.72 9.28L22.72 9.28Q24.32 7.46 24.70 7L24.70 7L24.70 7Q25.77 5.67 26.40 4.52L26.40 4.52L26.40 4.52Q26.00 4.30 25.49 4.30L25.49 4.30L25.49 4.30Q25.20 4.30 24.63 4.39L24.63 4.39L24.63 4.39Q24.07 4.48 23.79 4.48L23.79 4.48L23.79 4.48Q23.42 4.48 23.13 4.38L23.13 4.38L23.13 4.38Q22.72 4.14 22.72 3.88L22.72 3.88L22.72 3.88Q22.72 3.78 22.79 3.70L22.79 3.70L22.79 3.70Q23.20 3.37 23.97 3.37L23.97 3.37L23.97 3.37Q24.05 3.37 24.22 3.37L24.22 3.37L24.22 3.37Q24.39 3.37 24.47 3.37L24.47 3.37L24.47 3.37Q24.88 3.37 25.14 3.30L25.14 3.30L25.14 3.30Q25.70 3.35 26.28 3.40L26.28 3.40L26.28 3.40Q26.95 3.49 27.32 3.74L27.32 3.74L27.32 3.74Q27.69 3.99 27.69 4.37L27.69 4.37L27.69 4.37Q27.69 4.48 27.65 4.59L27.65 4.59L27.65 4.59Q27.20 5.70 26.19 6.97L26.19 6.97L26.19 6.97Q25.27 8.06 24.35 9.14L24.35 9.14L24.35 9.14Q26.43 9.76 27.93 9.94L27.93 9.94L27.93 9.94Q28.08 9.94 28.24 10.25ZM33.01 3.63L33.01 3.63L33.01 3.63Q32.49 3.84 31.49 4.12L31.49 4.12L31.49 4.12Q30.48 4.40 29.96 4.61L29.96 4.61L29.96 4.61Q29.83 4.97 29.78 6.23L29.78 6.23L29.78 6.23Q30.00 6.31 30.30 6.31L30.30 6.31L30.30 6.31Q30.51 6.31 30.95 6.24L30.95 6.24L30.95 6.24Q31.40 6.17 31.61 6.17L31.61 6.17L31.61 6.17Q32.00 6.17 32.28 6.34L32.28 6.34L32.28 6.34Q32.48 6.62 32.48 6.71L32.48 6.71L32.48 6.71Q32.48 6.80 32.38 6.86L32.38 6.86L32.38 6.86Q32.35 6.87 32.19 7.06L32.19 7.06L32.19 7.06Q32.07 7.18 31.91 7.17L31.91 7.17L31.91 7.17Q31.61 7.24 30.83 7.25L30.83 7.25L30.83 7.25Q30.17 7.27 29.78 7.42L29.78 7.42L29.78 7.42Q29.51 8.46 29.51 9.06L29.51 9.06L29.51 9.06Q29.51 9.46 29.62 9.70L29.62 9.70L29.62 9.70Q30.28 10.16 31.91 10.09L31.91 10.09L31.91 10.09Q32.02 10.09 32.14 9.99L32.14 9.99L32.14 9.99Q32.27 9.88 32.35 9.88L32.35 9.88L32.35 9.88Q32.75 9.80 32.87 10.47L32.87 10.47L32.87 10.47Q32.91 10.70 32.80 10.88L32.80 10.88L32.80 10.88Q32.68 11.07 32.45 11.09L32.45 11.09L32.45 11.09Q30.76 11.14 29.51 10.82L29.51 10.82L29.51 10.82Q29.12 10.72 28.80 10.39L28.80 10.39L28.80 10.39Q28.48 10.05 28.43 9.63L28.43 9.63L28.43 9.63Q28.31 8.41 28.43 7.45L28.43 7.45L28.43 7.45Q28.04 7.18 28.08 6.93L28.08 6.93L28.08 6.93Q28.10 6.80 28.30 6.70L28.30 6.70L28.30 6.70Q28.50 6.59 28.53 6.48L28.53 6.48L28.53 6.48Q28.56 6.37 28.64 5.15L28.64 5.15L28.64 5.15Q27.86 5.00 27.87 4.56L27.87 4.56L27.87 4.56Q27.89 4.16 28.36 3.92L28.36 3.92L28.36 3.92Q28.81 3.74 29.26 3.56L29.26 3.56L29.26 3.56Q29.79 3.29 30.58 3.08L30.58 3.08L30.58 3.08Q31.25 2.90 31.93 2.73L31.93 2.73L31.93 2.73Q32.00 2.72 32.10 2.72L32.10 2.72L32.10 2.72Q32.48 2.72 32.98 3.01L32.98 3.01L32.98 3.01Q33.00 3.07 33.05 3.22L33.05 3.22L33.05 3.22Q33.11 3.37 33.11 3.44L33.11 3.44L33.11 3.44Q33.11 3.56 33.01 3.63Z"></path></g><defs data-v-fde0c5aa=""><linearGradient data-v-fde0c5aa="" gradientTransform="rotate(25)" id="52dfc8c7-6b44-41c0-b289-ab01a0f1d32c" x1="0%" y1="0%" x2="100%" y2="0%"><stop data-v-fde0c5aa="" offset="0%" stop-color="#E98E0D" stop-opacity="1"></stop><stop data-v-fde0c5aa="" offset="100%" stop-color="#1536F1" stop-opacity="1"></stop></linearGradient></defs><g data-v-fde0c5aa="" id="b4eb2de2-b021-4683-89b3-865ba2564f80" stroke="none" fill="url(#52dfc8c7-6b44-41c0-b289-ab01a0f1d32c)" transform="matrix(1.885621689360109,0,0,1.885621689360109,56.661724578405625,12.500579505530869)"><circle cx="42.692" cy="80.595" r="3.888"></circle><path d="M47.234 63.9c-2.255-2.058-3.994-8.579 2.516-10.977 6.207-2.287 13.525 12.121 1.83 15.094-12.603 3.204-18.063-19.139-6.175-27.443 31.126-21.742-3.546-40.633-.124-9.834 5.776 42.406 6.482 41.893 6.698 47.784.15 4.093-2.425 7.332-6.77 6.417-1.409-.297.298-1.566.229-1.601-1.372-.686-3.016 1.147-4.117.915 8.69 4.803 11.756-1.338 11.507-5.946-.173-3.197-5.104-47.366-5.104-48.661 0-13.264 7.972-11.663 7.286-5.489S40.145 40.573 36.486 48.12s-2.884 17.575 8.462 21.269c11.238 3.659 21.758-9.148 16.269-16.009-8.306-10.382-24.013 2.744-13.983 10.52zM38.43 27.664H21.825a1.384 1.384 0 1 1 0-2.768H38.43a1.384 1.384 0 1 1 0 2.768zM77.175 27.664H63.337a1.384 1.384 0 1 1 0-2.768h13.837a1.384 1.384 0 0 1 .001 2.768zM34.279 40.117H14.906a1.384 1.384 0 1 1 0-2.768h19.372a1.384 1.384 0 0 1 .001 2.768z"></path><path d="M84.094 40.117H55.035a1.384 1.384 0 1 1 0-2.768h29.059a1.384 1.384 0 1 1 0 2.768zM27.36 52.571H10.755a1.384 1.384 0 1 1 0-2.768H27.36a1.384 1.384 0 1 1 0 2.768zM88.245 52.571H67.489a1.384 1.384 0 1 1 0-2.768h20.756a1.384 1.384 0 1 1 0 2.768zM30.128 65.025H16.29a1.384 1.384 0 1 1 0-2.768h13.837a1.384 1.384 0 0 1 .001 2.768zM84.094 65.025H67.489a1.384 1.384 0 1 1 0-2.768h16.605a1.384 1.384 0 1 1 0 2.768zM32.895 77.479h-9.686a1.384 1.384 0 1 1 0-2.768h9.686a1.384 1.384 0 1 1 0 2.768z"></path><g><path d="M75.791 77.479H60.57a1.384 1.384 0 1 1 0-2.768h15.221a1.384 1.384 0 1 1 0 2.768z"></path></g></g><!----></svg>