<svg data-v-423bf9ae="" xmlns="http://www.w3.org/2000/svg" viewBox="0 0 313 90" class="iconLeft"><!----><!----><!----><g data-v-423bf9ae="" id="b933441f-75ee-43d3-8bad-c149b1984d9b" fill="#2e3034" transform="matrix(5.236735127722212,0,0,5.236735127722212,125.74887316708467,-4.794856964035709)"><path d="M2.04 3.79L0.49 5.62L0.70 5.71L0.70 5.71Q1.02 5.24 1.50 5.22L1.50 5.22L2.75 5.23L2.75 5.23Q1.98 5.70 1.62 6.45L1.62 6.45L0.84 10.32L0.61 11.15L0.61 11.15Q0.28 11.87-0.88 12.90L-0.88 12.90L-0.71 12.93L-0.71 12.93Q-0.29 12.66 3.46 12.70L3.46 12.70L4.90 11.12L4.76 11.00L4.76 11.00Q4.35 11.46 3.54 11.44L3.54 11.44L0.87 11.45L0.87 11.45Q1.45 10.95 2.08 9.93L2.08 9.93L3.09 5.20L3.12 5.18L4.60 3.92L4.59 3.78L2.04 3.79ZM4.27 14.52L4.27 14.52Q5.61 15.87 7.48 14.68L7.48 14.68L7.48 14.68Q9.35 13.48 9.88 11.97L9.88 11.97L10.76 7.62L10.76 7.62Q10.82 6.62 10.14 6.47L10.14 6.47L8.37 7.93L8.48 8.15L9.00 7.73L9.00 7.73Q9.41 7.70 9.16 8.70L9.16 8.70L8.73 10.87L8.73 10.87Q8.05 11.44 7.35 11.38L7.35 11.38L7.35 11.38Q6.64 11.32 6.76 10.16L6.76 10.16L7.27 7.64L7.27 7.64Q7.48 6.64 6.71 6.49L6.71 6.49L4.98 8.03L5.07 8.28L5.57 7.88L5.57 7.88Q6.02 7.67 5.85 8.60L5.85 8.60L5.41 10.79L5.41 10.79Q5.22 12.26 6.60 12.76L6.60 12.76L6.60 12.76Q7.64 12.23 8.67 11.46L8.67 11.46L8.51 12.25L8.51 12.25Q8.24 14.14 7.15 14.25L7.15 14.25L7.15 14.25Q6.06 14.35 5.30 13.43L5.30 13.43L4.27 14.52ZM12.75 6.58L11.00 8.23L11.15 8.37L11.15 8.37Q11.73 7.79 11.96 7.91L11.96 7.91L11.96 7.91Q12.19 8.04 11.96 8.80L11.96 8.80L11.27 11.58L11.27 11.58Q11.15 12.56 11.82 12.71L11.82 12.71L13.50 11.40L13.43 11.27L13.43 11.27Q12.63 11.70 12.78 11.05L12.78 11.05L13.45 8.37L13.45 8.37Q13.69 7.57 14.05 7.54L14.05 7.54L14.05 7.54Q14.42 7.51 14.62 8.24L14.62 8.24L16.00 7.35L16.00 7.35Q15.73 6.67 15.25 6.55L15.25 6.55L15.25 6.55Q14.77 6.43 14.35 6.75L14.35 6.75L14.35 6.75Q13.92 7.07 13.55 7.58L13.55 7.58L13.55 7.58Q13.64 6.70 12.75 6.58L12.75 6.58ZM18.21 3.80L16.74 4.94L16.74 4.94Q17.46 5.07 17.31 6.04L17.31 6.04L18.79 5.02L18.79 5.02Q19.01 4.12 18.21 3.80L18.21 3.80ZM17.79 6.44L15.83 7.82L15.91 8.07L16.39 7.77L16.39 7.77Q16.75 7.77 16.46 8.80L16.46 8.80L15.91 11.58L15.91 11.58Q15.78 12.58 16.53 12.71L16.53 12.71L18.14 11.40L18.01 11.25L17.56 11.59L17.56 11.59Q17.19 11.57 17.44 10.53L17.44 10.53L18.01 7.64L18.01 7.64Q18.21 6.57 17.79 6.44L17.79 6.44ZM21.94 6.54L21.94 6.54Q21.25 6.79 20.33 7.53L20.33 7.53L20.33 7.53Q18.44 9.04 18.65 10.32L18.65 10.32L18.65 10.32Q18.85 11.59 19.38 12.20L19.38 12.20L19.38 12.20Q19.91 12.80 20.44 12.68L20.44 12.68L20.44 12.68Q21.64 11.89 22.85 10.62L22.85 10.62L22.71 10.47L22.71 10.47Q22.00 11.13 21.38 11.32L21.38 11.32L21.38 11.32Q20.64 11.47 20.17 10.51L20.17 10.51L20.17 10.51Q19.71 9.56 20.01 8.67L20.01 8.67L20.01 8.67Q20.32 7.79 20.73 7.68L20.73 7.68L20.73 7.68Q21.14 7.57 21.53 7.83L21.53 7.83L21.53 7.83Q21.92 8.09 21.87 8.85L21.87 8.85L23.19 7.87L23.19 7.87Q23.43 7.21 23.00 6.84L23.00 6.84L23.00 6.84Q22.57 6.47 21.94 6.54L21.94 6.54ZM25.87 3.80L24.40 4.94L24.40 4.94Q25.12 5.07 24.97 6.04L24.97 6.04L26.46 5.02L26.46 5.02Q26.67 4.12 25.87 3.80L25.87 3.80ZM25.45 6.44L23.50 7.82L23.58 8.07L24.05 7.77L24.05 7.77Q24.41 7.77 24.12 8.80L24.12 8.80L23.57 11.58L23.57 11.58Q23.45 12.58 24.19 12.71L24.19 12.71L25.80 11.40L25.68 11.25L25.22 11.59L25.22 11.59Q24.85 11.57 25.10 10.53L25.10 10.53L25.68 7.64L25.68 7.64Q25.87 6.57 25.45 6.44L25.45 6.44ZM28.23 6.67L26.78 8.37L26.88 8.48L26.88 8.48Q27.47 7.84 28.52 7.90L28.52 7.90L30.15 7.90L30.15 7.90Q26.39 11.57 25.71 12.56L25.71 12.56L25.82 12.68L25.82 12.68Q26.31 12.27 27.68 12.60L27.68 12.60L27.68 12.60Q29.04 12.93 29.64 12.53L29.64 12.53L29.64 12.53Q30.25 12.13 31.25 10.66L31.25 10.66L31.08 10.55L31.08 10.55Q30.21 11.83 27.54 11.13L27.54 11.13L31.71 6.84L31.63 6.67L28.23 6.67ZM34.38 6.54L34.38 6.54Q33.70 6.79 32.92 7.53L32.92 7.53L32.92 7.53Q31.03 9.04 31.23 10.32L31.23 10.32L31.23 10.32Q31.43 11.59 32.05 12.30L32.05 12.30L32.05 12.30Q32.66 13.02 33.34 12.52L33.34 12.52L33.34 12.52Q34.36 11.89 35.37 10.76L35.37 10.76L35.23 10.61L35.23 10.61Q34.73 11.13 34.19 11.42L34.19 11.42L34.19 11.42Q33.43 11.79 32.91 10.68L32.91 10.68L32.91 10.68Q32.38 9.57 32.55 8.67L32.55 8.67L32.55 8.67Q32.72 7.77 33.31 7.57L33.31 7.57L33.31 7.57Q33.89 7.37 34.20 7.83L34.20 7.83L34.20 7.83Q34.51 8.29 34.22 8.63L34.22 8.63L34.22 8.63Q33.93 8.98 33.37 9.33L33.37 9.33L32.79 9.71L32.94 10.00L34.92 8.63L35.58 8.14L35.58 8.14Q35.89 7.21 35.45 6.84L35.45 6.84L35.45 6.84Q35.02 6.47 34.38 6.54L34.38 6.54Z"></path></g><!----><g data-v-423bf9ae="" id="25615e99-da80-48fa-b3d2-a215d01eaf96" transform="matrix(1.2601927131862114,0,0,1.2601927131862114,-11.008541168288211,-17.79458343626316)" stroke="none" fill="#488eff"><circle cx="42.692" cy="80.595" r="3.888"></circle><path d="M47.234 63.9c-2.255-2.058-3.994-8.579 2.516-10.977 6.207-2.287 13.525 12.121 1.83 15.094-12.603 3.204-18.063-19.139-6.175-27.443 31.126-21.742-3.546-40.633-.124-9.834 5.776 42.406 6.482 41.893 6.698 47.784.15 4.093-2.425 7.332-6.77 6.417-1.409-.297.298-1.566.229-1.601-1.372-.686-3.016 1.147-4.117.915 8.69 4.803 11.756-1.338 11.507-5.946-.173-3.197-5.104-47.366-5.104-48.661 0-13.264 7.972-11.663 7.286-5.489S40.145 40.573 36.486 48.12s-2.884 17.575 8.462 21.269c11.238 3.659 21.758-9.148 16.269-16.009-8.306-10.382-24.013 2.744-13.983 10.52zM38.43 27.664H21.825a1.384 1.384 0 1 1 0-2.768H38.43a1.384 1.384 0 1 1 0 2.768zM77.175 27.664H63.337a1.384 1.384 0 1 1 0-2.768h13.837a1.384 1.384 0 0 1 .001 2.768zM34.279 40.117H14.906a1.384 1.384 0 1 1 0-2.768h19.372a1.384 1.384 0 0 1 .001 2.768z"></path><path d="M84.094 40.117H55.035a1.384 1.384 0 1 1 0-2.768h29.059a1.384 1.384 0 1 1 0 2.768zM27.36 52.571H10.755a1.384 1.384 0 1 1 0-2.768H27.36a1.384 1.384 0 1 1 0 2.768zM88.245 52.571H67.489a1.384 1.384 0 1 1 0-2.768h20.756a1.384 1.384 0 1 1 0 2.768zM30.128 65.025H16.29a1.384 1.384 0 1 1 0-2.768h13.837a1.384 1.384 0 0 1 .001 2.768zM84.094 65.025H67.489a1.384 1.384 0 1 1 0-2.768h16.605a1.384 1.384 0 1 1 0 2.768zM32.895 77.479h-9.686a1.384 1.384 0 1 1 0-2.768h9.686a1.384 1.384 0 1 1 0 2.768z"></path><g><path d="M75.791 77.479H60.57a1.384 1.384 0 1 1 0-2.768h15.221a1.384 1.384 0 1 1 0 2.768z"></path></g></g><!----></svg>